<svg width="24" height="24" viewBox="0 0 24 24" fill="none" xmlns="http://www.w3.org/2000/svg">
<path d="M21.2878 5.76C21.2527 5.71779 21.2087 5.68382 21.1589 5.66049C21.1092 5.63717 21.0549 5.62505 21 5.625H5.56312L4.93687 2.1825C4.92109 2.09626 4.87559 2.01827 4.80829 1.9621C4.74098 1.90592 4.65611 1.8751 4.56844 1.875H2.25C2.15054 1.875 2.05516 1.91451 1.98484 1.98484C1.91451 2.05516 1.875 2.15054 1.875 2.25C1.875 2.34946 1.91451 2.44484 1.98484 2.51517C2.05516 2.58549 2.15054 2.625 2.25 2.625H4.25531L4.8825 6.075L6.70219 16.0856C6.78608 16.5431 7.03701 16.9531 7.40625 17.2359C7.01943 17.4853 6.71836 17.8472 6.54364 18.2729C6.36893 18.6987 6.32897 19.1678 6.42915 19.6169C6.52933 20.0661 6.76483 20.4738 7.1039 20.7849C7.44297 21.0961 7.8693 21.2958 8.32541 21.3571C8.78151 21.4184 9.24544 21.3384 9.65465 21.1278C10.0639 20.9173 10.3987 20.5863 10.6139 20.1795C10.8292 19.7728 10.9145 19.3098 10.8584 18.853C10.8023 18.3962 10.6076 17.9676 10.3003 17.625H15.9497C15.6062 18.009 15.4049 18.4994 15.3795 19.014C15.3541 19.5286 15.506 20.0364 15.81 20.4524C16.114 20.8684 16.5515 21.1675 17.0495 21.2997C17.5475 21.4319 18.0758 21.3891 18.5461 21.1786C19.0164 20.9681 19.4001 20.6025 19.6333 20.143C19.8664 19.6835 19.9347 19.1579 19.8269 18.6541C19.7191 18.1503 19.4416 17.6987 19.0408 17.3749C18.64 17.0511 18.1402 16.8746 17.625 16.875H8.54719C8.28387 16.8749 8.02895 16.7824 7.82681 16.6136C7.62466 16.4449 7.48811 16.2106 7.44094 15.9516L7.06594 13.875H18.3844C18.8235 13.8751 19.2487 13.721 19.5859 13.4397C19.923 13.1584 20.1508 12.7676 20.2294 12.3356L21.3694 6.0675C21.3792 6.0134 21.3769 5.95781 21.3628 5.90467C21.3487 5.85153 21.3231 5.80214 21.2878 5.76ZM10.125 19.125C10.125 19.4217 10.037 19.7117 9.8722 19.9584C9.70738 20.205 9.47311 20.3973 9.19902 20.5108C8.92494 20.6244 8.62334 20.6541 8.33236 20.5962C8.04139 20.5383 7.77412 20.3954 7.56434 20.1857C7.35456 19.9759 7.2117 19.7086 7.15382 19.4176C7.09594 19.1267 7.12565 18.8251 7.23918 18.551C7.35271 18.2769 7.54497 18.0426 7.79164 17.8778C8.03832 17.713 8.32833 17.625 8.625 17.625C9.02282 17.625 9.40435 17.783 9.68566 18.0643C9.96696 18.3456 10.125 18.7272 10.125 19.125ZM19.125 19.125C19.125 19.4217 19.037 19.7117 18.8722 19.9584C18.7074 20.205 18.4731 20.3973 18.199 20.5108C17.9249 20.6244 17.6233 20.6541 17.3324 20.5962C17.0414 20.5383 16.7741 20.3954 16.5643 20.1857C16.3546 19.9759 16.2117 19.7086 16.1538 19.4176C16.0959 19.1267 16.1256 18.8251 16.2392 18.551C16.3527 18.2769 16.545 18.0426 16.7916 17.8778C17.0383 17.713 17.3283 17.625 17.625 17.625C18.0228 17.625 18.4044 17.783 18.6857 18.0643C18.967 18.3456 19.125 18.7272 19.125 19.125ZM19.4916 12.2016C19.4444 12.4608 19.3077 12.6952 19.1053 12.8639C18.903 13.0327 18.6478 13.1251 18.3844 13.125H6.92625L5.69906 6.375H20.5509L19.4916 12.2016Z" fill="black"/>
</svg>
