<svg width="24" height="24" viewBox="0 0 24 24" fill="none" xmlns="http://www.w3.org/2000/svg">
<path d="M21.3243 20.0618C19.7755 17.3843 17.293 15.5562 14.4168 14.8971C15.7835 14.3372 16.9134 13.32 17.6134 12.0194C18.3135 10.7189 18.5402 9.21558 18.2548 7.7664C17.9694 6.31723 17.1897 5.01211 16.0489 4.07401C14.9081 3.13591 13.4769 2.62305 11.9999 2.62305C10.5229 2.62305 9.09173 3.13591 7.9509 4.07401C6.81007 5.01211 6.03037 6.31723 5.74501 7.7664C5.45966 9.21558 5.68636 10.7189 6.38637 12.0194C7.08639 13.32 8.21629 14.3372 9.58303 14.8971C6.71053 15.5534 4.22428 17.3843 2.67553 20.0618C2.6307 20.1475 2.62071 20.2472 2.64766 20.3401C2.67461 20.433 2.73641 20.5119 2.82015 20.5603C2.90388 20.6087 3.00309 20.6229 3.09703 20.5999C3.19097 20.5769 3.27239 20.5185 3.32428 20.4368C5.15616 17.2671 8.40178 15.3743 11.9999 15.3743C15.598 15.3743 18.8437 17.2671 20.6755 20.4368C20.7084 20.4938 20.7557 20.5411 20.8126 20.574C20.8696 20.6069 20.9341 20.6243 20.9999 20.6243C21.0658 20.6245 21.1306 20.607 21.1874 20.5737C21.2734 20.5239 21.3361 20.4421 21.3617 20.3461C21.3874 20.2501 21.3739 20.1479 21.3243 20.0618ZM6.37491 8.99933C6.37491 7.88681 6.70481 6.79927 7.32289 5.87425C7.94097 4.94922 8.81948 4.22825 9.84731 3.80251C10.8751 3.37677 12.0061 3.26537 13.0973 3.48241C14.1884 3.69946 15.1907 4.23518 15.9774 5.02186C16.7641 5.80853 17.2998 6.8108 17.5168 7.90195C17.7339 8.99309 17.6225 10.1241 17.1967 11.1519C16.771 12.1798 16.05 13.0583 15.125 13.6763C14.2 14.2944 13.1124 14.6243 11.9999 14.6243C10.5086 14.6226 9.07886 14.0294 8.02435 12.9749C6.96983 11.9204 6.37664 10.4906 6.37491 8.99933Z" fill="black"/>
</svg>
